<svg id="Camada_1" data-name="Camada 1" xmlns="http://www.w3.org/2000/svg" viewBox="0 0 400 133.04"><defs><style>.cls-1,.cls-4{fill:#fff;}.cls-2{fill:#29cea4;}.cls-3{fill:#eb319a;}.cls-4{font-size:43.31px;font-family:GoshaSans-Bold, Gosha Sans;font-weight:700;}.cls-5{letter-spacing:-0.08em;}.cls-6{letter-spacing:-0.06em;}.cls-7{letter-spacing:0em;}.cls-8{letter-spacing:-0.03em;}.cls-9{letter-spacing:-0.04em;}.cls-10{letter-spacing:-0.01em;}.cls-11{letter-spacing:-0.03em;}</style></defs><polygon class="cls-1" points="129.48 68.21 92.68 83.37 30.77 58.41 30.77 34.12 37.88 36.62 37.88 53.68 92.53 75.47 112.27 67.42 100.43 62.67 107.37 59.64 129.48 68.21"/><polygon class="cls-2" points="150.94 28.72 150.94 35.98 124 46.73 116.06 49.25 92.21 58.57 37.88 36.62 30.77 34.12 30.77 26.19 91.83 50.51 150.94 28.72"/><polygon class="cls-3" points="150.94 79.42 150.94 85.58 91.83 107.69 30.77 84 30.77 75.79 91.83 100.43 144.03 81.47 150.94 79.42"/><polygon class="cls-1" points="150.94 56.83 150.94 79.42 144.03 81.47 144.03 60.94 116.06 49.25 124 46.73 150.94 56.83"/><text class="cls-4" transform="translate(176.55 56.31)"><tspan class="cls-5">V</tspan><tspan class="cls-6" x="28.19" y="0">G</tspan><tspan x="56.95" y="0">V</tspan><tspan class="cls-7" x="0" y="51.97">C</tspan><tspan class="cls-8" x="30.06" y="51.97">ON</tspan><tspan class="cls-9" x="91.29" y="51.97">T</tspan><tspan class="cls-10" x="117.19" y="51.97">R</tspan><tspan class="cls-11" x="145.08" y="51.97">O</tspan><tspan x="176.87" y="51.97">L</tspan></text><rect class="cls-2" x="270.15" y="38.14" width="103.11" height="6.31"/></svg>