<svg xmlns="http://www.w3.org/2000/svg" viewBox="0 0 90.62 61.46"><defs><style>.cls-1{fill:#fff;}.cls-2{fill:#29cea4;}.cls-3{fill:#eb319a;}</style></defs><g id="Camada_2" data-name="Camada 2"><g id="Camada_2-2" data-name="Camada 2"><polygon class="cls-1" points="74.44 31.68 46.69 43.12 0 24.29 0 5.98 5.37 7.86 5.37 20.72 46.57 37.16 61.46 31.08 52.53 27.51 57.77 25.22 74.44 31.68"/><polygon class="cls-2" points="90.62 1.91 90.62 7.38 70.3 15.48 64.32 17.39 46.33 24.41 5.37 7.86 0 5.98 0 0 46.05 18.34 90.62 1.91"/><polygon class="cls-3" points="90.62 40.13 90.62 44.78 46.05 61.46 0 43.59 0 37.4 46.05 55.98 85.41 41.68 90.62 40.13"/><polygon class="cls-1" points="90.62 23.1 90.62 40.13 85.41 41.68 85.41 26.2 64.32 17.39 70.3 15.48 90.62 23.1"/></g></g></svg>