<?xml version="1.0" encoding="utf-8"?>
<!-- Generator: Adobe Illustrator 26.0.1, SVG Export Plug-In . SVG Version: 6.00 Build 0)  -->
<svg version="1.1" xmlns="http://www.w3.org/2000/svg" xmlns:xlink="http://www.w3.org/1999/xlink" x="0px" y="0px"
	 viewBox="0 0 260.2 73.7" style="enable-background:new 0 0 260.2 73.7;" xml:space="preserve">
<style type="text/css">
	.st0{stroke:#FFFFFF;stroke-miterlimit:10;}
	.st1{fill:#FFFFFF;}
	.st2{fill:#29CEA4;}
	.st3{fill:#EB319A;}
	.st4{font-family:'GoshaSans-Bold';}
	.st5{font-size:32.66px;}
	.st6{letter-spacing:-2;}
	.st7{letter-spacing:-1;}
	.st8{fill:none;stroke:#29CEA4;stroke-width:0.25;stroke-miterlimit:10;}
</style>
<g id="Camada_1">
	<rect x="1.8" class="st0" width="258.4" height="73.7"/>
	<g id="Camada_2_00000002360723353307616600000011411715711416411293_">
		<g id="Camada_4">
			<polygon class="st1" points="74.4,36.4 46.7,47.8 0,29 0,10.7 5.4,12.6 5.4,25.4 46.6,41.9 61.5,35.8 52.5,32.2 57.8,29.9 			"/>
			<polygon class="st2" points="90.6,6.6 90.6,12.1 70.3,20.2 64.3,22.1 46.3,29.1 5.4,12.6 0,10.7 0,4.7 46,23.1 			"/>
			<polygon class="st3" points="90.6,44.8 90.6,49.5 46,66.2 0,48.3 0,42.1 46,60.7 85.4,46.4 			"/>
			<polygon class="st1" points="90.6,27.8 90.6,44.8 85.4,46.4 85.4,30.9 64.3,22.1 70.3,20.2 			"/>
			<text transform="matrix(1 0 0 1 109.94 27.43)" class="st1 st4 st5 st6">V</text>
			<text transform="matrix(1 0 0 1 131.2 27.43)" class="st1 st4 st5 st7">G</text>
			<text transform="matrix(1 0 0 1 152.89 27.43)" class="st1 st4 st5">V</text>
			<text transform="matrix(1 0 0 1 109.94 66.62)" class="st1 st4 st5">C</text>
			<text transform="matrix(1 0 0 1 132.6 66.62)" class="st1 st4 st5">ON</text>
			<text transform="matrix(1 0 0 1 178.78 66.62)" class="st1 st4 st5 st7">T</text>
			<text transform="matrix(1 0 0 1 198.31 66.62)" class="st1 st4 st5">R</text>
			<text transform="matrix(1 0 0 1 219.34 66.62)" class="st1 st4 st5">O</text>
			<text transform="matrix(1 0 0 1 243.31 66.62)" class="st1 st4 st5">L</text>
			<rect x="180.5" y="13.7" class="st2" width="77.8" height="4.8"/>
		</g>
	</g>
</g>
<g id="Camada_2">
	<polygon class="st1" points="160.3,-82 132.5,-70.6 85.8,-89.4 85.8,-107.7 91.2,-105.9 91.2,-93 132.4,-76.6 147.3,-82.6 
		138.4,-86.2 143.6,-88.5 	"/>
	<polygon class="st2" points="176.4,-111.8 176.4,-106.3 156.1,-98.2 150.1,-96.3 132.2,-89.3 91.2,-105.9 85.8,-107.7 85.8,-113.7 
		131.9,-95.4 	"/>
	<polygon class="st3" points="176.4,-73.6 176.4,-68.9 131.9,-52.3 85.8,-70.1 85.8,-76.3 131.9,-57.7 171.2,-72 	"/>
	<polygon class="st1" points="176.4,-90.6 176.4,-73.6 171.2,-72 171.2,-87.5 150.1,-96.3 156.1,-98.2 	"/>
	<polygon class="st8" points="266.3,-82 238.5,-70.6 191.8,-89.4 191.8,-107.7 197.2,-105.9 197.2,-93 238.4,-76.6 253.3,-82.6 
		244.4,-86.2 249.6,-88.5 	"/>
	<polygon class="st8" points="282.5,-111.8 282.5,-106.3 262.1,-98.2 256.2,-96.3 238.2,-89.3 197.2,-105.9 191.8,-107.7 
		191.8,-113.7 237.9,-95.4 	"/>
	<polygon class="st8" points="282.5,-73.6 282.5,-68.9 237.9,-52.3 191.8,-70.1 191.8,-76.3 237.9,-57.7 277.3,-72 	"/>
	<polygon class="st8" points="282.5,-90.6 282.5,-73.6 277.3,-72 277.3,-87.5 256.2,-96.3 262.1,-98.2 	"/>
</g>
</svg>
